<?xml version="1.0" encoding="utf-8"?>
<!-- Generator: Adobe Illustrator 25.2.1, SVG Export Plug-In . SVG Version: 6.00 Build 0)  -->
<svg version="1.1" id="Capa_1" xmlns="http://www.w3.org/2000/svg" xmlns:xlink="http://www.w3.org/1999/xlink" x="0px" y="0px"
	 viewBox="0 0 800 800" style="enable-background:new 0 0 800 800;" xml:space="preserve">
<style type="text/css">
	.st0{fill:#ffffff;}
</style>
<g>
	<path class="st0" d="M84.8,654.5h109.1v109.1c0,20.1,16.3,36.4,36.4,36.4h484.8c20.1,0,36.4-16.3,36.4-36.4V181.8
		c0-20.1-16.3-36.4-36.4-36.4H606.1V36.4c0-20.1-16.3-36.4-36.4-36.4H84.8C64.8,0,48.5,16.3,48.5,36.4v581.8
		C48.5,638.3,64.8,654.5,84.8,654.5z M678.8,727.3H266.7V218.2h412.1V727.3z M121.2,72.7h412.1v72.7h-303
		c-20.1,0-36.4,16.3-36.4,36.4v400h-72.7V72.7z"/>
	<path class="st0" d="M375.8,290.9c-20.1,0-36.4,16.3-36.4,36.4c0,20.1,16.3,36.4,36.4,36.4h193.9c20.1,0,36.4-16.3,36.4-36.4
		c0-20.1-16.3-36.4-36.4-36.4H375.8z"/>
	<path class="st0" d="M569.7,436.4H375.8c-20.1,0-36.4,16.3-36.4,36.4s16.3,36.4,36.4,36.4h193.9c20.1,0,36.4-16.3,36.4-36.4
		S589.8,436.4,569.7,436.4z"/>
	<path class="st0" d="M569.7,581.8H375.8c-20.1,0-36.4,16.3-36.4,36.4c0,20.1,16.3,36.4,36.4,36.4h193.9c20.1,0,36.4-16.3,36.4-36.4
		C606.1,598.1,589.8,581.8,569.7,581.8z"/>
</g>
</svg>
