<svg width="537" height="380" viewBox="0 0 537 380" fill="none" xmlns="http://www.w3.org/2000/svg">
<path fill-rule="evenodd" clip-rule="evenodd" d="M278.229 209.692C277.381 208.771 289.475 168.821 256.141 130.507L323.962 62.9531C337.7 76.6221 396.423 142.631 370.32 232.263L278.229 209.692Z" fill="#001FFE"/>
<path fill-rule="evenodd" clip-rule="evenodd" d="M533.849 242.087C533.849 246.219 530.5 249.569 526.367 249.569C522.235 249.569 518.885 246.219 518.885 242.087C518.885 237.954 522.235 234.604 526.367 234.604C530.5 234.604 533.849 237.954 533.849 242.087ZM526.367 251.439C531.533 251.439 535.72 247.252 535.72 242.087C535.72 236.921 531.533 232.734 526.367 232.734C521.202 232.734 517.014 236.921 517.014 242.087C517.014 247.252 521.202 251.439 526.367 251.439ZM321.978 242.931H517V241.061H321.978H269V242.931H321.978Z" fill="black"/>
<path fill-rule="evenodd" clip-rule="evenodd" d="M188 380C84.1705 380 0 295.83 0 192C0 88.1705 84.1705 4.00001 188 4C238.296 4 283.979 23.7509 317.716 55.9198L249.699 123.938C233.391 109.175 211.76 100.182 188.028 100.182C137.265 100.182 96.1137 141.328 96.1137 192.083C96.1137 242.838 137.265 283.984 188.028 283.984C229.739 283.984 264.96 256.205 276.196 218.141L369.592 240.845C348.088 320.993 274.935 380 188 380Z" fill="#001FFE"/>
<path opacity="0.25" d="M188.002 289.004C241.532 289.004 284.926 245.61 284.926 192.08C284.926 138.55 241.532 95.1562 188.002 95.1562C134.472 95.1562 91.0781 138.55 91.0781 192.08C91.0781 245.61 134.472 289.004 188.002 289.004Z" stroke="black" stroke-width="10.4799"/>
<path d="M405.067 215.331H403.773C403.696 214.959 403.562 214.632 403.371 214.35C403.183 214.068 402.953 213.831 402.682 213.64C402.414 213.445 402.116 213.299 401.789 213.201C401.462 213.104 401.121 213.055 400.766 213.055C400.119 213.055 399.532 213.219 399.007 213.546C398.485 213.873 398.069 214.355 397.759 214.992C397.453 215.629 397.3 216.41 397.3 217.336C397.3 218.261 397.453 219.043 397.759 219.679C398.069 220.316 398.485 220.798 399.007 221.125C399.532 221.453 400.119 221.616 400.766 221.616C401.121 221.616 401.462 221.567 401.789 221.47C402.116 221.373 402.414 221.228 402.682 221.037C402.953 220.842 403.183 220.603 403.371 220.322C403.562 220.036 403.696 219.709 403.773 219.34H405.067C404.97 219.886 404.793 220.375 404.535 220.807C404.277 221.239 403.957 221.606 403.574 221.908C403.192 222.208 402.762 222.436 402.285 222.592C401.812 222.749 401.305 222.827 400.766 222.827C399.854 222.827 399.043 222.604 398.333 222.159C397.623 221.714 397.065 221.08 396.658 220.259C396.251 219.438 396.047 218.463 396.047 217.336C396.047 216.208 396.251 215.234 396.658 214.412C397.065 213.591 397.623 212.958 398.333 212.512C399.043 212.067 399.854 211.844 400.766 211.844C401.305 211.844 401.812 211.922 402.285 212.079C402.762 212.235 403.192 212.465 403.574 212.768C403.957 213.067 404.277 213.433 404.535 213.864C404.793 214.292 404.97 214.781 405.067 215.331ZM406.992 222.681V214.663H408.224V222.681H406.992ZM407.619 213.326C407.379 213.326 407.172 213.245 406.998 213.081C406.827 212.918 406.742 212.721 406.742 212.491C406.742 212.262 406.827 212.065 406.998 211.901C407.172 211.738 407.379 211.656 407.619 211.656C407.859 211.656 408.064 211.738 408.235 211.901C408.409 212.065 408.496 212.262 408.496 212.491C408.496 212.721 408.409 212.918 408.235 213.081C408.064 213.245 407.859 213.326 407.619 213.326ZM410.481 222.681V214.663H411.671V215.874H411.754C411.901 215.477 412.165 215.155 412.548 214.908C412.931 214.661 413.362 214.538 413.843 214.538C413.933 214.538 414.046 214.539 414.182 214.543C414.318 214.546 414.42 214.551 414.49 214.558V215.811C414.448 215.801 414.352 215.785 414.203 215.764C414.057 215.74 413.902 215.728 413.738 215.728C413.348 215.728 413 215.81 412.694 215.973C412.391 216.133 412.151 216.356 411.974 216.641C411.8 216.923 411.713 217.245 411.713 217.607V222.681H410.481ZM418.964 222.848C418.212 222.848 417.565 222.671 417.022 222.316C416.479 221.961 416.061 221.472 415.769 220.849C415.476 220.226 415.33 219.514 415.33 218.714C415.33 217.899 415.48 217.181 415.779 216.558C416.082 215.931 416.503 215.442 417.043 215.091C417.585 214.736 418.219 214.558 418.943 214.558C419.506 214.558 420.015 214.663 420.467 214.872C420.919 215.08 421.29 215.373 421.579 215.749C421.868 216.124 422.047 216.563 422.117 217.064H420.885C420.791 216.699 420.582 216.375 420.258 216.093C419.938 215.808 419.506 215.665 418.964 215.665C418.483 215.665 418.062 215.79 417.7 216.041C417.342 216.288 417.062 216.638 416.86 217.09C416.661 217.539 416.562 218.066 416.562 218.672C416.562 219.291 416.66 219.831 416.855 220.29C417.053 220.75 417.331 221.106 417.69 221.36C418.052 221.614 418.476 221.741 418.964 221.741C419.284 221.741 419.574 221.686 419.835 221.574C420.096 221.463 420.317 221.303 420.498 221.094C420.679 220.885 420.808 220.635 420.885 220.342H422.117C422.047 220.816 421.875 221.242 421.6 221.621C421.328 221.997 420.968 222.296 420.519 222.519C420.074 222.738 419.555 222.848 418.964 222.848ZM428.971 219.403V214.663H430.203V222.681H428.971V221.324H428.887C428.699 221.731 428.407 222.077 428.01 222.363C427.613 222.644 427.112 222.785 426.507 222.785C426.006 222.785 425.56 222.676 425.17 222.457C424.781 222.234 424.474 221.9 424.252 221.454C424.029 221.005 423.917 220.44 423.917 219.758V214.663H425.149V219.674C425.149 220.259 425.313 220.725 425.64 221.073C425.971 221.421 426.392 221.595 426.903 221.595C427.21 221.595 427.521 221.517 427.838 221.36C428.158 221.204 428.426 220.964 428.642 220.64C428.861 220.316 428.971 219.904 428.971 219.403ZM433.691 211.99V222.681H432.459V211.99H433.691ZM438.307 222.869C437.799 222.869 437.338 222.773 436.924 222.582C436.509 222.387 436.181 222.107 435.937 221.741C435.693 221.373 435.571 220.927 435.571 220.405C435.571 219.946 435.662 219.573 435.843 219.288C436.024 218.999 436.266 218.773 436.569 218.609C436.871 218.446 437.205 218.324 437.571 218.244C437.94 218.16 438.31 218.094 438.683 218.046C439.17 217.983 439.565 217.936 439.868 217.905C440.174 217.87 440.397 217.812 440.536 217.732C440.679 217.652 440.75 217.513 440.75 217.315V217.273C440.75 216.758 440.609 216.358 440.327 216.072C440.049 215.787 439.626 215.644 439.059 215.644C438.47 215.644 438.009 215.773 437.675 216.031C437.341 216.288 437.106 216.563 436.971 216.855L435.801 216.438C436.01 215.95 436.288 215.571 436.636 215.3C436.988 215.025 437.371 214.833 437.785 214.725C438.202 214.614 438.613 214.558 439.017 214.558C439.274 214.558 439.57 214.59 439.904 214.652C440.242 214.712 440.567 214.835 440.88 215.023C441.197 215.211 441.46 215.495 441.669 215.874C441.877 216.253 441.982 216.761 441.982 217.398V222.681H440.75V221.595H440.687C440.604 221.769 440.465 221.955 440.27 222.154C440.075 222.352 439.815 222.521 439.492 222.66C439.168 222.799 438.773 222.869 438.307 222.869ZM438.495 221.762C438.982 221.762 439.393 221.667 439.727 221.475C440.064 221.284 440.318 221.037 440.489 220.734C440.663 220.431 440.75 220.113 440.75 219.779V218.651C440.698 218.714 440.583 218.771 440.405 218.823C440.231 218.872 440.03 218.916 439.8 218.954C439.574 218.989 439.353 219.02 439.137 219.048C438.925 219.072 438.752 219.093 438.62 219.11C438.3 219.152 438.001 219.22 437.722 219.314C437.447 219.405 437.225 219.542 437.054 219.726C436.887 219.907 436.803 220.154 436.803 220.468C436.803 220.896 436.962 221.219 437.278 221.439C437.599 221.654 438.004 221.762 438.495 221.762ZM447.718 214.663V215.707H443.562V214.663H447.718ZM444.773 212.742H446.005V220.384C446.005 220.732 446.056 220.993 446.157 221.167C446.261 221.338 446.393 221.453 446.553 221.512C446.717 221.567 446.889 221.595 447.07 221.595C447.206 221.595 447.317 221.588 447.404 221.574C447.491 221.557 447.561 221.543 447.613 221.533L447.864 222.639C447.78 222.671 447.664 222.702 447.514 222.733C447.364 222.768 447.175 222.785 446.945 222.785C446.597 222.785 446.256 222.711 445.922 222.561C445.591 222.411 445.316 222.183 445.097 221.877C444.881 221.571 444.773 221.185 444.773 220.718V212.742ZM449.571 222.681V214.663H450.803V222.681H449.571ZM450.197 213.326C449.957 213.326 449.75 213.245 449.576 213.081C449.405 212.918 449.32 212.721 449.32 212.491C449.32 212.262 449.405 212.065 449.576 211.901C449.75 211.738 449.957 211.656 450.197 211.656C450.437 211.656 450.643 211.738 450.813 211.901C450.987 212.065 451.074 212.262 451.074 212.491C451.074 212.721 450.987 212.918 450.813 213.081C450.643 213.245 450.437 213.326 450.197 213.326ZM454.291 217.858V222.681H453.059V214.663H454.249V215.916H454.354C454.542 215.509 454.827 215.181 455.21 214.934C455.593 214.684 456.087 214.558 456.692 214.558C457.235 214.558 457.71 214.67 458.117 214.893C458.525 215.112 458.841 215.446 459.067 215.895C459.294 216.34 459.407 216.904 459.407 217.586V222.681H458.175V217.67C458.175 217.04 458.011 216.549 457.684 216.198C457.357 215.843 456.908 215.665 456.337 215.665C455.944 215.665 455.593 215.75 455.283 215.921C454.977 216.091 454.735 216.34 454.557 216.667C454.38 216.995 454.291 217.391 454.291 217.858ZM464.895 225.855C464.299 225.855 463.788 225.778 463.36 225.625C462.932 225.476 462.575 225.277 462.29 225.03C462.008 224.786 461.783 224.525 461.616 224.247L462.598 223.558C462.709 223.704 462.85 223.871 463.02 224.059C463.191 224.251 463.424 224.416 463.72 224.555C464.019 224.698 464.411 224.769 464.895 224.769C465.542 224.769 466.076 224.612 466.497 224.299C466.918 223.986 467.129 223.495 467.129 222.827V221.199H467.024C466.934 221.345 466.805 221.526 466.638 221.741C466.474 221.954 466.238 222.143 465.928 222.31C465.622 222.474 465.208 222.556 464.686 222.556C464.038 222.556 463.457 222.403 462.942 222.096C462.431 221.79 462.025 221.345 461.726 220.76C461.43 220.175 461.282 219.465 461.282 218.63C461.282 217.809 461.427 217.094 461.715 216.485C462.004 215.872 462.406 215.399 462.921 215.065C463.436 214.727 464.031 214.558 464.707 214.558C465.229 214.558 465.643 214.645 465.949 214.819C466.259 214.99 466.495 215.185 466.659 215.404C466.826 215.62 466.955 215.797 467.045 215.937H467.17V214.663H468.361V222.911C468.361 223.6 468.204 224.16 467.891 224.592C467.581 225.027 467.164 225.345 466.638 225.547C466.116 225.752 465.535 225.855 464.895 225.855ZM464.853 221.449C465.347 221.449 465.765 221.336 466.106 221.11C466.447 220.884 466.706 220.558 466.883 220.134C467.061 219.709 467.15 219.201 467.15 218.609C467.15 218.032 467.063 217.522 466.889 217.08C466.715 216.638 466.457 216.292 466.116 216.041C465.775 215.79 465.354 215.665 464.853 215.665C464.331 215.665 463.896 215.797 463.548 216.062C463.203 216.326 462.944 216.681 462.77 217.127C462.599 217.572 462.514 218.066 462.514 218.609C462.514 219.166 462.601 219.659 462.775 220.087C462.953 220.511 463.214 220.845 463.558 221.089C463.906 221.329 464.338 221.449 464.853 221.449ZM480.764 214.663C480.701 214.134 480.447 213.723 480.002 213.431C479.556 213.139 479.01 212.992 478.363 212.992C477.889 212.992 477.475 213.069 477.12 213.222C476.769 213.375 476.494 213.586 476.295 213.854C476.1 214.122 476.003 214.426 476.003 214.767C476.003 215.053 476.071 215.298 476.207 215.503C476.346 215.705 476.523 215.874 476.739 216.01C476.955 216.142 477.181 216.252 477.418 216.339C477.654 216.422 477.872 216.49 478.07 216.542L479.156 216.834C479.434 216.908 479.744 217.008 480.085 217.137C480.43 217.266 480.759 217.442 481.072 217.664C481.389 217.884 481.65 218.166 481.855 218.51C482.06 218.855 482.163 219.277 482.163 219.779C482.163 220.356 482.011 220.878 481.709 221.345C481.409 221.811 480.971 222.182 480.393 222.457C479.819 222.731 479.121 222.869 478.3 222.869C477.534 222.869 476.871 222.745 476.311 222.498C475.754 222.251 475.316 221.907 474.996 221.465C474.679 221.023 474.5 220.509 474.458 219.925H475.794C475.829 220.328 475.965 220.663 476.201 220.927C476.442 221.188 476.744 221.383 477.11 221.512C477.479 221.637 477.875 221.7 478.3 221.7C478.794 221.7 479.238 221.62 479.631 221.46C480.024 221.296 480.336 221.07 480.565 220.781C480.795 220.489 480.91 220.148 480.91 219.758C480.91 219.403 480.811 219.114 480.612 218.891C480.414 218.668 480.153 218.487 479.829 218.348C479.506 218.209 479.156 218.087 478.78 217.983L477.465 217.607C476.629 217.367 475.968 217.024 475.481 216.579C474.994 216.133 474.75 215.55 474.75 214.83C474.75 214.231 474.912 213.709 475.236 213.264C475.563 212.815 476.001 212.467 476.551 212.22C477.104 211.969 477.722 211.844 478.404 211.844C479.093 211.844 479.706 211.968 480.242 212.215C480.778 212.458 481.202 212.792 481.516 213.217C481.832 213.641 481.999 214.123 482.017 214.663H480.764ZM489.177 219.403V214.663H490.409V222.681H489.177V221.324H489.094C488.906 221.731 488.614 222.077 488.217 222.363C487.82 222.644 487.319 222.785 486.714 222.785C486.212 222.785 485.767 222.676 485.377 222.457C484.987 222.234 484.681 221.9 484.458 221.454C484.236 221.005 484.124 220.44 484.124 219.758V214.663H485.356V219.674C485.356 220.259 485.52 220.725 485.847 221.073C486.178 221.421 486.599 221.595 487.11 221.595C487.416 221.595 487.728 221.517 488.045 221.36C488.365 221.204 488.633 220.964 488.849 220.64C489.068 220.316 489.177 219.904 489.177 219.403ZM492.666 225.688V214.663H493.856V215.937H494.002C494.093 215.797 494.218 215.62 494.378 215.404C494.542 215.185 494.775 214.99 495.078 214.819C495.384 214.645 495.798 214.558 496.32 214.558C496.995 214.558 497.59 214.727 498.105 215.065C498.62 215.402 499.022 215.881 499.311 216.5C499.6 217.12 499.744 217.851 499.744 218.693C499.744 219.542 499.6 220.278 499.311 220.901C499.022 221.52 498.622 222.001 498.11 222.342C497.599 222.679 497.009 222.848 496.341 222.848C495.826 222.848 495.413 222.763 495.104 222.592C494.794 222.418 494.556 222.222 494.388 222.002C494.221 221.78 494.093 221.595 494.002 221.449H493.898V225.688H492.666ZM493.877 218.672C493.877 219.277 493.966 219.812 494.143 220.275C494.321 220.734 494.58 221.094 494.921 221.355C495.262 221.613 495.68 221.741 496.174 221.741C496.689 221.741 497.119 221.606 497.463 221.334C497.811 221.059 498.072 220.69 498.246 220.228C498.424 219.761 498.512 219.243 498.512 218.672C498.512 218.108 498.425 217.6 498.251 217.148C498.081 216.692 497.822 216.332 497.474 216.067C497.129 215.799 496.696 215.665 496.174 215.665C495.673 215.665 495.252 215.792 494.91 216.046C494.569 216.297 494.312 216.648 494.138 217.101C493.964 217.55 493.877 218.073 493.877 218.672ZM501.624 225.688V214.663H502.814V215.937H502.96C503.05 215.797 503.176 215.62 503.336 215.404C503.499 215.185 503.733 214.99 504.035 214.819C504.342 214.645 504.756 214.558 505.278 214.558C505.953 214.558 506.548 214.727 507.063 215.065C507.578 215.402 507.98 215.881 508.269 216.5C508.558 217.12 508.702 217.851 508.702 218.693C508.702 219.542 508.558 220.278 508.269 220.901C507.98 221.52 507.58 222.001 507.068 222.342C506.557 222.679 505.967 222.848 505.299 222.848C504.784 222.848 504.371 222.763 504.061 222.592C503.752 222.418 503.513 222.222 503.346 222.002C503.179 221.78 503.05 221.595 502.96 221.449H502.856V225.688H501.624ZM502.835 218.672C502.835 219.277 502.923 219.812 503.101 220.275C503.278 220.734 503.538 221.094 503.879 221.355C504.22 221.613 504.637 221.741 505.132 221.741C505.647 221.741 506.076 221.606 506.421 221.334C506.769 221.059 507.03 220.69 507.204 220.228C507.381 219.761 507.47 219.243 507.47 218.672C507.47 218.108 507.383 217.6 507.209 217.148C507.039 216.692 506.779 216.332 506.431 216.067C506.087 215.799 505.654 215.665 505.132 215.665C504.63 215.665 504.209 215.792 503.868 216.046C503.527 216.297 503.27 216.648 503.096 217.101C502.922 217.55 502.835 218.073 502.835 218.672ZM511.813 211.99V222.681H510.581V211.99H511.813ZM514.863 225.688C514.654 225.688 514.468 225.67 514.305 225.636C514.141 225.604 514.028 225.573 513.965 225.542L514.279 224.456C514.578 224.532 514.842 224.56 515.072 224.539C515.302 224.519 515.505 224.416 515.683 224.231C515.864 224.05 516.029 223.756 516.179 223.349L516.408 222.723L513.443 214.663H514.78L516.993 221.052H517.077L519.29 214.663H520.626L517.223 223.85C517.07 224.264 516.88 224.607 516.654 224.879C516.428 225.154 516.165 225.357 515.866 225.489C515.57 225.622 515.236 225.688 514.863 225.688Z" fill="black"/>
<path d="M397.184 179.996C396.879 179.422 397.084 178.977 397.799 178.66C398.479 178.355 399.188 177.928 399.926 177.377C400.664 176.826 401.268 176.258 401.736 175.672C402.264 175.016 402.768 174.688 403.248 174.688H406.043C406.746 174.688 407.098 175.039 407.098 175.742V198.945C407.098 199.648 406.746 200 406.043 200H403.231C402.527 200 402.176 199.648 402.176 198.945V182.229C402.176 181.76 402.199 181.291 402.246 180.822H402.176C401.813 181.279 401.414 181.672 400.981 182C400.547 182.328 400.107 182.586 399.662 182.773C399.111 183.008 398.695 182.855 398.414 182.316L397.184 179.996ZM411.51 187.502C411.51 182.756 412.248 179.387 413.725 177.395C415.201 175.402 417.463 174.406 420.51 174.406C423.557 174.406 425.818 175.402 427.295 177.395C428.772 179.387 429.51 182.756 429.51 187.502C429.51 192.248 428.772 195.617 427.295 197.609C425.818 199.602 423.557 200.598 420.51 200.598C417.463 200.598 415.201 199.602 413.725 197.609C412.248 195.617 411.51 192.248 411.51 187.502ZM416.713 187.502C416.713 189.67 416.889 191.756 417.24 193.76C417.604 195.764 418.693 196.766 420.51 196.766C422.326 196.766 423.41 195.764 423.762 193.76C424.125 191.756 424.307 189.67 424.307 187.502C424.307 185.334 424.125 183.248 423.762 181.244C423.41 179.24 422.326 178.238 420.51 178.238C418.693 178.238 417.604 179.24 417.24 181.244C416.889 183.248 416.713 185.334 416.713 187.502ZM432.604 187.502C432.604 182.756 433.342 179.387 434.818 177.395C436.295 175.402 438.557 174.406 441.604 174.406C444.65 174.406 446.912 175.402 448.389 177.395C449.865 179.387 450.604 182.756 450.604 187.502C450.604 192.248 449.865 195.617 448.389 197.609C446.912 199.602 444.65 200.598 441.604 200.598C438.557 200.598 436.295 199.602 434.818 197.609C433.342 195.617 432.604 192.248 432.604 187.502ZM437.807 187.502C437.807 189.67 437.982 191.756 438.334 193.76C438.697 195.764 439.787 196.766 441.604 196.766C443.42 196.766 444.504 195.764 444.856 193.76C445.219 191.756 445.4 189.67 445.4 187.502C445.4 185.334 445.219 183.248 444.856 181.244C444.504 179.24 443.42 178.238 441.604 178.238C439.787 178.238 438.697 179.24 438.334 181.244C437.982 183.248 437.807 185.334 437.807 187.502Z" fill="black"/>
</svg>
