<svg width="537" height="380" viewBox="0 0 537 380" fill="none" xmlns="http://www.w3.org/2000/svg">
<path fill-rule="evenodd" clip-rule="evenodd" d="M278.232 209.689C277.384 208.768 289.478 168.818 256.144 130.504L323.965 62.9502C337.703 76.6192 396.426 142.628 370.323 232.26L278.232 209.689Z" fill="#E0E0E0"/>
<path fill-rule="evenodd" clip-rule="evenodd" d="M533.849 242.091C533.849 246.223 530.5 249.573 526.367 249.573C522.235 249.573 518.885 246.223 518.885 242.091C518.885 237.958 522.235 234.608 526.367 234.608C530.5 234.608 533.849 237.958 533.849 242.091ZM526.367 251.443C531.533 251.443 535.72 247.256 535.72 242.091C535.72 236.925 531.533 232.738 526.367 232.738C521.202 232.738 517.014 236.925 517.014 242.091C517.014 247.256 521.202 251.443 526.367 251.443ZM321.978 242.935H517V241.065H321.978H269V242.935H321.978Z" fill="black"/>
<path fill-rule="evenodd" clip-rule="evenodd" d="M188 380C84.1705 380 0 295.83 0 192C0 88.1705 84.1705 4.00001 188 4C238.296 4 283.979 23.7509 317.716 55.9198L249.699 123.938C233.391 109.175 211.76 100.182 188.028 100.182C137.265 100.182 96.1137 141.328 96.1137 192.083C96.1137 242.838 137.265 283.984 188.028 283.984C229.739 283.984 264.96 256.205 276.196 218.141L369.592 240.845C348.088 320.993 274.935 380 188 380Z" fill="black"/>
<path opacity="0.25" d="M188 289.007C241.53 289.007 284.924 245.613 284.924 192.083C284.924 138.553 241.53 95.1592 188 95.1592C134.47 95.1592 91.0762 138.553 91.0762 192.083C91.0762 245.613 134.47 289.007 188 289.007Z" stroke="black" stroke-width="10.4799"/>
<path d="M405.064 215.331H403.77C403.693 214.959 403.559 214.632 403.368 214.35C403.18 214.068 402.95 213.831 402.679 213.64C402.411 213.445 402.113 213.299 401.786 213.201C401.459 213.104 401.118 213.055 400.763 213.055C400.116 213.055 399.529 213.219 399.004 213.546C398.482 213.873 398.066 214.355 397.756 214.992C397.45 215.629 397.297 216.41 397.297 217.336C397.297 218.261 397.45 219.043 397.756 219.679C398.066 220.316 398.482 220.798 399.004 221.125C399.529 221.453 400.116 221.616 400.763 221.616C401.118 221.616 401.459 221.567 401.786 221.47C402.113 221.373 402.411 221.228 402.679 221.037C402.95 220.842 403.18 220.603 403.368 220.322C403.559 220.036 403.693 219.709 403.77 219.34H405.064C404.967 219.886 404.79 220.375 404.532 220.807C404.274 221.239 403.954 221.606 403.571 221.908C403.189 222.208 402.759 222.436 402.282 222.592C401.809 222.749 401.302 222.827 400.763 222.827C399.851 222.827 399.04 222.604 398.33 222.159C397.62 221.714 397.062 221.08 396.655 220.259C396.248 219.438 396.044 218.463 396.044 217.336C396.044 216.208 396.248 215.234 396.655 214.412C397.062 213.591 397.62 212.958 398.33 212.512C399.04 212.067 399.851 211.844 400.763 211.844C401.302 211.844 401.809 211.922 402.282 212.079C402.759 212.235 403.189 212.465 403.571 212.768C403.954 213.067 404.274 213.433 404.532 213.864C404.79 214.292 404.967 214.781 405.064 215.331ZM406.989 222.681V214.663H408.221V222.681H406.989ZM407.616 213.326C407.376 213.326 407.169 213.245 406.995 213.081C406.824 212.918 406.739 212.721 406.739 212.491C406.739 212.262 406.824 212.065 406.995 211.901C407.169 211.738 407.376 211.656 407.616 211.656C407.856 211.656 408.061 211.738 408.232 211.901C408.406 212.065 408.493 212.262 408.493 212.491C408.493 212.721 408.406 212.918 408.232 213.081C408.061 213.245 407.856 213.326 407.616 213.326ZM410.478 222.681V214.663H411.668V215.874H411.751C411.898 215.477 412.162 215.155 412.545 214.908C412.928 214.661 413.359 214.538 413.84 214.538C413.93 214.538 414.043 214.539 414.179 214.543C414.315 214.546 414.417 214.551 414.487 214.558V215.811C414.445 215.801 414.349 215.785 414.2 215.764C414.054 215.74 413.899 215.728 413.735 215.728C413.345 215.728 412.997 215.81 412.691 215.973C412.388 216.133 412.148 216.356 411.971 216.641C411.797 216.923 411.71 217.245 411.71 217.607V222.681H410.478ZM418.961 222.848C418.209 222.848 417.562 222.671 417.019 222.316C416.476 221.961 416.058 221.472 415.766 220.849C415.473 220.226 415.327 219.514 415.327 218.714C415.327 217.899 415.477 217.181 415.776 216.558C416.079 215.931 416.5 215.442 417.04 215.091C417.582 214.736 418.216 214.558 418.94 214.558C419.503 214.558 420.012 214.663 420.464 214.872C420.916 215.08 421.287 215.373 421.576 215.749C421.865 216.124 422.044 216.563 422.114 217.064H420.882C420.788 216.699 420.579 216.375 420.255 216.093C419.935 215.808 419.503 215.665 418.961 215.665C418.48 215.665 418.059 215.79 417.697 216.041C417.339 216.288 417.059 216.638 416.857 217.09C416.658 217.539 416.559 218.066 416.559 218.672C416.559 219.291 416.657 219.831 416.852 220.29C417.05 220.75 417.328 221.106 417.687 221.36C418.049 221.614 418.473 221.741 418.961 221.741C419.281 221.741 419.571 221.686 419.832 221.574C420.093 221.463 420.314 221.303 420.495 221.094C420.676 220.885 420.805 220.635 420.882 220.342H422.114C422.044 220.816 421.872 221.242 421.597 221.621C421.325 221.997 420.965 222.296 420.516 222.519C420.071 222.738 419.552 222.848 418.961 222.848ZM428.968 219.403V214.663H430.2V222.681H428.968V221.324H428.884C428.696 221.731 428.404 222.077 428.007 222.363C427.61 222.644 427.109 222.785 426.504 222.785C426.003 222.785 425.557 222.676 425.167 222.457C424.778 222.234 424.471 221.9 424.249 221.454C424.026 221.005 423.914 220.44 423.914 219.758V214.663H425.146V219.674C425.146 220.259 425.31 220.725 425.637 221.073C425.968 221.421 426.389 221.595 426.9 221.595C427.207 221.595 427.518 221.517 427.835 221.36C428.155 221.204 428.423 220.964 428.639 220.64C428.858 220.316 428.968 219.904 428.968 219.403ZM433.688 211.99V222.681H432.456V211.99H433.688ZM438.304 222.869C437.796 222.869 437.335 222.773 436.921 222.582C436.506 222.387 436.178 222.107 435.934 221.741C435.69 221.373 435.568 220.927 435.568 220.405C435.568 219.946 435.659 219.573 435.84 219.288C436.021 218.999 436.263 218.773 436.566 218.609C436.868 218.446 437.202 218.324 437.568 218.244C437.937 218.16 438.307 218.094 438.68 218.046C439.167 217.983 439.562 217.936 439.865 217.905C440.171 217.87 440.394 217.812 440.533 217.732C440.676 217.652 440.747 217.513 440.747 217.315V217.273C440.747 216.758 440.606 216.358 440.324 216.072C440.046 215.787 439.623 215.644 439.056 215.644C438.467 215.644 438.006 215.773 437.672 216.031C437.338 216.288 437.103 216.563 436.968 216.855L435.798 216.438C436.007 215.95 436.285 215.571 436.633 215.3C436.985 215.025 437.368 214.833 437.782 214.725C438.199 214.614 438.61 214.558 439.014 214.558C439.271 214.558 439.567 214.59 439.901 214.652C440.239 214.712 440.564 214.835 440.877 215.023C441.194 215.211 441.457 215.495 441.666 215.874C441.874 216.253 441.979 216.761 441.979 217.398V222.681H440.747V221.595H440.684C440.601 221.769 440.462 221.955 440.267 222.154C440.072 222.352 439.812 222.521 439.489 222.66C439.165 222.799 438.77 222.869 438.304 222.869ZM438.492 221.762C438.979 221.762 439.39 221.667 439.724 221.475C440.061 221.284 440.315 221.037 440.486 220.734C440.66 220.431 440.747 220.113 440.747 219.779V218.651C440.695 218.714 440.58 218.771 440.402 218.823C440.228 218.872 440.027 218.916 439.797 218.954C439.571 218.989 439.35 219.02 439.134 219.048C438.922 219.072 438.749 219.093 438.617 219.11C438.297 219.152 437.998 219.22 437.719 219.314C437.444 219.405 437.222 219.542 437.051 219.726C436.884 219.907 436.8 220.154 436.8 220.468C436.8 220.896 436.959 221.219 437.275 221.439C437.596 221.654 438.001 221.762 438.492 221.762ZM447.715 214.663V215.707H443.559V214.663H447.715ZM444.77 212.742H446.002V220.384C446.002 220.732 446.053 220.993 446.154 221.167C446.258 221.338 446.39 221.453 446.55 221.512C446.714 221.567 446.886 221.595 447.067 221.595C447.203 221.595 447.314 221.588 447.401 221.574C447.488 221.557 447.558 221.543 447.61 221.533L447.861 222.639C447.777 222.671 447.661 222.702 447.511 222.733C447.361 222.768 447.172 222.785 446.942 222.785C446.594 222.785 446.253 222.711 445.919 222.561C445.588 222.411 445.313 222.183 445.094 221.877C444.878 221.571 444.77 221.185 444.77 220.718V212.742ZM449.568 222.681V214.663H450.8V222.681H449.568ZM450.194 213.326C449.954 213.326 449.747 213.245 449.573 213.081C449.402 212.918 449.317 212.721 449.317 212.491C449.317 212.262 449.402 212.065 449.573 211.901C449.747 211.738 449.954 211.656 450.194 211.656C450.434 211.656 450.64 211.738 450.81 211.901C450.984 212.065 451.071 212.262 451.071 212.491C451.071 212.721 450.984 212.918 450.81 213.081C450.64 213.245 450.434 213.326 450.194 213.326ZM454.288 217.858V222.681H453.056V214.663H454.246V215.916H454.351C454.539 215.509 454.824 215.181 455.207 214.934C455.59 214.684 456.084 214.558 456.689 214.558C457.232 214.558 457.707 214.67 458.114 214.893C458.522 215.112 458.838 215.446 459.064 215.895C459.291 216.34 459.404 216.904 459.404 217.586V222.681H458.172V217.67C458.172 217.04 458.008 216.549 457.681 216.198C457.354 215.843 456.905 215.665 456.334 215.665C455.941 215.665 455.59 215.75 455.28 215.921C454.974 216.091 454.732 216.34 454.554 216.667C454.377 216.995 454.288 217.391 454.288 217.858ZM464.892 225.855C464.296 225.855 463.785 225.778 463.357 225.625C462.929 225.476 462.572 225.277 462.287 225.03C462.005 224.786 461.78 224.525 461.613 224.247L462.595 223.558C462.706 223.704 462.847 223.871 463.017 224.059C463.188 224.251 463.421 224.416 463.717 224.555C464.016 224.698 464.408 224.769 464.892 224.769C465.539 224.769 466.073 224.612 466.494 224.299C466.915 223.986 467.126 223.495 467.126 222.827V221.199H467.021C466.931 221.345 466.802 221.526 466.635 221.741C466.471 221.954 466.235 222.143 465.925 222.31C465.619 222.474 465.205 222.556 464.683 222.556C464.035 222.556 463.454 222.403 462.939 222.096C462.428 221.79 462.022 221.345 461.723 220.76C461.427 220.175 461.279 219.465 461.279 218.63C461.279 217.809 461.424 217.094 461.712 216.485C462.001 215.872 462.403 215.399 462.918 215.065C463.433 214.727 464.028 214.558 464.704 214.558C465.226 214.558 465.64 214.645 465.946 214.819C466.256 214.99 466.492 215.185 466.656 215.404C466.823 215.62 466.952 215.797 467.042 215.937H467.167V214.663H468.358V222.911C468.358 223.6 468.201 224.16 467.888 224.592C467.578 225.027 467.161 225.345 466.635 225.547C466.113 225.752 465.532 225.855 464.892 225.855ZM464.85 221.449C465.344 221.449 465.762 221.336 466.103 221.11C466.444 220.884 466.703 220.558 466.88 220.134C467.058 219.709 467.147 219.201 467.147 218.609C467.147 218.032 467.06 217.522 466.886 217.08C466.712 216.638 466.454 216.292 466.113 216.041C465.772 215.79 465.351 215.665 464.85 215.665C464.328 215.665 463.893 215.797 463.545 216.062C463.2 216.326 462.941 216.681 462.767 217.127C462.596 217.572 462.511 218.066 462.511 218.609C462.511 219.166 462.598 219.659 462.772 220.087C462.95 220.511 463.211 220.845 463.555 221.089C463.903 221.329 464.335 221.449 464.85 221.449ZM480.761 214.663C480.698 214.134 480.444 213.723 479.999 213.431C479.553 213.139 479.007 212.992 478.36 212.992C477.886 212.992 477.472 213.069 477.117 213.222C476.766 213.375 476.491 213.586 476.292 213.854C476.097 214.122 476 214.426 476 214.767C476 215.053 476.068 215.298 476.204 215.503C476.343 215.705 476.52 215.874 476.736 216.01C476.952 216.142 477.178 216.252 477.415 216.339C477.651 216.422 477.869 216.49 478.067 216.542L479.153 216.834C479.431 216.908 479.741 217.008 480.082 217.137C480.427 217.266 480.756 217.442 481.069 217.664C481.386 217.884 481.647 218.166 481.852 218.51C482.057 218.855 482.16 219.277 482.16 219.779C482.16 220.356 482.008 220.878 481.706 221.345C481.406 221.811 480.968 222.182 480.39 222.457C479.816 222.731 479.118 222.869 478.297 222.869C477.531 222.869 476.868 222.745 476.308 222.498C475.751 222.251 475.313 221.907 474.993 221.465C474.676 221.023 474.497 220.509 474.455 219.925H475.791C475.826 220.328 475.962 220.663 476.198 220.927C476.439 221.188 476.741 221.383 477.107 221.512C477.476 221.637 477.872 221.7 478.297 221.7C478.791 221.7 479.235 221.62 479.628 221.46C480.021 221.296 480.333 221.07 480.562 220.781C480.792 220.489 480.907 220.148 480.907 219.758C480.907 219.403 480.808 219.114 480.609 218.891C480.411 218.668 480.15 218.487 479.826 218.348C479.503 218.209 479.153 218.087 478.777 217.983L477.462 217.607C476.626 217.367 475.965 217.024 475.478 216.579C474.991 216.133 474.747 215.55 474.747 214.83C474.747 214.231 474.909 213.709 475.233 213.264C475.56 212.815 475.998 212.467 476.548 212.22C477.101 211.969 477.719 211.844 478.401 211.844C479.09 211.844 479.703 211.968 480.239 212.215C480.775 212.458 481.199 212.792 481.513 213.217C481.829 213.641 481.996 214.123 482.014 214.663H480.761ZM489.174 219.403V214.663H490.406V222.681H489.174V221.324H489.091C488.903 221.731 488.611 222.077 488.214 222.363C487.817 222.644 487.316 222.785 486.711 222.785C486.209 222.785 485.764 222.676 485.374 222.457C484.984 222.234 484.678 221.9 484.455 221.454C484.233 221.005 484.121 220.44 484.121 219.758V214.663H485.353V219.674C485.353 220.259 485.517 220.725 485.844 221.073C486.175 221.421 486.596 221.595 487.107 221.595C487.413 221.595 487.725 221.517 488.042 221.36C488.362 221.204 488.63 220.964 488.846 220.64C489.065 220.316 489.174 219.904 489.174 219.403ZM492.663 225.688V214.663H493.853V215.937H493.999C494.09 215.797 494.215 215.62 494.375 215.404C494.539 215.185 494.772 214.99 495.075 214.819C495.381 214.645 495.795 214.558 496.317 214.558C496.992 214.558 497.587 214.727 498.102 215.065C498.617 215.402 499.019 215.881 499.308 216.5C499.597 217.12 499.741 217.851 499.741 218.693C499.741 219.542 499.597 220.278 499.308 220.901C499.019 221.52 498.619 222.001 498.107 222.342C497.596 222.679 497.006 222.848 496.338 222.848C495.823 222.848 495.41 222.763 495.101 222.592C494.791 222.418 494.553 222.222 494.385 222.002C494.218 221.78 494.09 221.595 493.999 221.449H493.895V225.688H492.663ZM493.874 218.672C493.874 219.277 493.963 219.812 494.14 220.275C494.318 220.734 494.577 221.094 494.918 221.355C495.259 221.613 495.677 221.741 496.171 221.741C496.686 221.741 497.116 221.606 497.46 221.334C497.808 221.059 498.069 220.69 498.243 220.228C498.421 219.761 498.509 219.243 498.509 218.672C498.509 218.108 498.422 217.6 498.248 217.148C498.078 216.692 497.819 216.332 497.471 216.067C497.126 215.799 496.693 215.665 496.171 215.665C495.67 215.665 495.249 215.792 494.907 216.046C494.566 216.297 494.309 216.648 494.135 217.101C493.961 217.55 493.874 218.073 493.874 218.672ZM501.621 225.688V214.663H502.811V215.937H502.957C503.047 215.797 503.173 215.62 503.333 215.404C503.496 215.185 503.73 214.99 504.032 214.819C504.339 214.645 504.753 214.558 505.275 214.558C505.95 214.558 506.545 214.727 507.06 215.065C507.575 215.402 507.977 215.881 508.266 216.5C508.555 217.12 508.699 217.851 508.699 218.693C508.699 219.542 508.555 220.278 508.266 220.901C507.977 221.52 507.577 222.001 507.065 222.342C506.554 222.679 505.964 222.848 505.296 222.848C504.781 222.848 504.368 222.763 504.058 222.592C503.749 222.418 503.51 222.222 503.343 222.002C503.176 221.78 503.047 221.595 502.957 221.449H502.853V225.688H501.621ZM502.832 218.672C502.832 219.277 502.92 219.812 503.098 220.275C503.275 220.734 503.535 221.094 503.876 221.355C504.217 221.613 504.634 221.741 505.129 221.741C505.644 221.741 506.073 221.606 506.418 221.334C506.766 221.059 507.027 220.69 507.201 220.228C507.378 219.761 507.467 219.243 507.467 218.672C507.467 218.108 507.38 217.6 507.206 217.148C507.036 216.692 506.776 216.332 506.428 216.067C506.084 215.799 505.651 215.665 505.129 215.665C504.627 215.665 504.206 215.792 503.865 216.046C503.524 216.297 503.267 216.648 503.093 217.101C502.919 217.55 502.832 218.073 502.832 218.672ZM511.81 211.99V222.681H510.578V211.99H511.81ZM514.86 225.688C514.651 225.688 514.465 225.67 514.302 225.636C514.138 225.604 514.025 225.573 513.962 225.542L514.276 224.456C514.575 224.532 514.839 224.56 515.069 224.539C515.299 224.519 515.502 224.416 515.68 224.231C515.861 224.05 516.026 223.756 516.176 223.349L516.405 222.723L513.44 214.663H514.777L516.99 221.052H517.074L519.287 214.663H520.623L517.22 223.85C517.067 224.264 516.877 224.607 516.651 224.879C516.425 225.154 516.162 225.357 515.863 225.489C515.567 225.622 515.233 225.688 514.86 225.688Z" fill="black"/>
<path d="M397.182 179.996C396.877 179.422 397.082 178.977 397.797 178.66C398.477 178.355 399.186 177.928 399.924 177.377C400.662 176.826 401.266 176.258 401.734 175.672C402.262 175.016 402.766 174.688 403.246 174.688H406.041C406.744 174.688 407.096 175.039 407.096 175.742V198.945C407.096 199.648 406.744 200 406.041 200H403.229C402.525 200 402.174 199.648 402.174 198.945V182.229C402.174 181.76 402.197 181.291 402.244 180.822H402.174C401.811 181.279 401.412 181.672 400.979 182C400.545 182.328 400.105 182.586 399.66 182.773C399.109 183.008 398.693 182.855 398.412 182.316L397.182 179.996ZM411.508 187.502C411.508 182.756 412.246 179.387 413.723 177.395C415.199 175.402 417.461 174.406 420.508 174.406C423.555 174.406 425.816 175.402 427.293 177.395C428.77 179.387 429.508 182.756 429.508 187.502C429.508 192.248 428.77 195.617 427.293 197.609C425.816 199.602 423.555 200.598 420.508 200.598C417.461 200.598 415.199 199.602 413.723 197.609C412.246 195.617 411.508 192.248 411.508 187.502ZM416.711 187.502C416.711 189.67 416.887 191.756 417.238 193.76C417.602 195.764 418.691 196.766 420.508 196.766C422.324 196.766 423.408 195.764 423.76 193.76C424.123 191.756 424.305 189.67 424.305 187.502C424.305 185.334 424.123 183.248 423.76 181.244C423.408 179.24 422.324 178.238 420.508 178.238C418.691 178.238 417.602 179.24 417.238 181.244C416.887 183.248 416.711 185.334 416.711 187.502ZM432.602 187.502C432.602 182.756 433.34 179.387 434.816 177.395C436.293 175.402 438.555 174.406 441.602 174.406C444.648 174.406 446.91 175.402 448.387 177.395C449.863 179.387 450.602 182.756 450.602 187.502C450.602 192.248 449.863 195.617 448.387 197.609C446.91 199.602 444.648 200.598 441.602 200.598C438.555 200.598 436.293 199.602 434.816 197.609C433.34 195.617 432.602 192.248 432.602 187.502ZM437.805 187.502C437.805 189.67 437.98 191.756 438.332 193.76C438.695 195.764 439.785 196.766 441.602 196.766C443.418 196.766 444.502 195.764 444.854 193.76C445.217 191.756 445.398 189.67 445.398 187.502C445.398 185.334 445.217 183.248 444.854 181.244C444.502 179.24 443.418 178.238 441.602 178.238C439.785 178.238 438.695 179.24 438.332 181.244C437.98 183.248 437.805 185.334 437.805 187.502Z" fill="black"/>
</svg>
